<?xml version="1.0" encoding="UTF-8"?>
<svg width="1338px" height="400px" viewBox="0 0 1338 400" version="1.1" xmlns="http://www.w3.org/2000/svg" xmlns:xlink="http://www.w3.org/1999/xlink" style="background: #FFFFFF;">
    <!-- Generator: Sketch 58 (84663) - https://sketch.com -->
    <title>Slice</title>
    <desc>Created with Sketch.</desc>
    <g id="Page-1" stroke="none" stroke-width="1" fill="none" fill-rule="evenodd">
        <g id="Group">
            <rect id="Rectangle" stroke="#FFFFFF" fill="#FFFFFF" x="0.5" y="0.5" width="1337" height="399"></rect>
            <g id="vectorised-sun" transform="translate(37.000000, 100.000000)" fill-rule="nonzero">
                <g id="layer101" transform="translate(2.000000, 1.000000)" fill="#DAA520">
                    <polygon id="Path" points="0 98.5 0 0 96 0 192 0 192 98.5 192 197 96 197 0 197"></polygon>
                </g>
                <g id="layer102" fill="#FFFFFF">
                    <path d="M0,100.5 L0,0 L98.5,0 L197,0 L197,100.5 L197,201 L98.5,201 L0,201 L0,100.5 Z M108.1,187.2 C108,182.4 107.5,176.9 107,175 C106.4,173 106.4,170.2 106.9,168.5 L107.7,165.5 L108.3,168 C109,171.1 110.1,180.1 110.4,185.5 C110.5,187.9 111.5,190.8 113,192.8 C115.8,196.6 116.6,196.8 117.3,193.8 C117.9,191.6 117.9,191.6 120.9,194.4 C124.7,198 126.2,197.2 124.4,192.3 C123.7,190.2 123.1,187.5 123,186.2 C123,184.9 122.6,183.1 122.1,182.2 C120.7,179.4 119.8,171 120.9,171 C121.5,171 122.2,172.6 122.6,174.5 C122.9,176.4 123.6,178.3 124.1,178.6 C124.6,178.9 125,180.6 125.1,182.3 C125.2,186.2 128,191.4 130.4,191.8 C131.9,192.1 132.1,191.6 131.4,187.3 C131.1,184.7 130.4,182.1 130,181.5 C129.6,181 128.9,179 128.5,177.2 C128.1,175.4 127.2,172.7 126.4,171.2 C125.6,169.7 125,167.7 125,166.8 C125,163.3 126.6,165.1 128.9,171.3 C130.2,174.7 131.9,178.9 132.6,180.7 C133.4,182.4 134,184.7 134,185.9 C134,187.1 134.6,188 135.4,188 C136.2,188 137.6,188.3 138.5,188.7 C140,189.2 140.1,188.8 139.5,185.9 C139.1,184 138.2,181.4 137.5,180 C135.5,176.2 131.3,165.8 130.6,163 C129.9,160.6 130,160.6 132.4,163.5 C133.8,165.2 136.5,169.4 138.2,172.8 C141.9,180 147.9,187 150.3,187 C152.7,187 152.3,185 149,180.5 C147.4,178.3 145.3,175.2 144.4,173.5 C143.5,171.9 141.3,168.5 139.6,166 C136.3,161.4 133,155.3 133,153.9 C133,152.7 137.2,157.3 139.2,160.6 C140.1,162.2 142,165.6 143.4,168.1 C146,173 150.6,177.4 154.1,178.5 C159.3,180.2 157.7,177.2 143.3,158.5 C138.2,152 137.1,150 138.8,150 C140,150.1 144,153.7 144,154.8 C144,155.4 145.1,156.7 146.4,157.7 C147.7,158.7 149.4,160.9 150.3,162.6 C153.2,168.2 164,176.7 164,173.3 C164,171.9 158.4,164.5 154,160.1 C148.2,154.1 142.8,146.3 144,145.5 C144.5,145.2 145.6,146.3 146.5,148 C147.3,149.6 148.6,151 149.3,151 C150,151 151.3,151.8 152.2,152.8 C153.1,153.7 155.5,156 157.4,157.8 C159.4,159.7 161,161.5 161,161.9 C161,162.7 166.4,166 167.9,166 C170.6,166 168.3,162.8 158.9,153.2 C153.3,147.5 149.1,142.6 149.4,142.2 C150.2,141.5 157,145 157,146.2 C157,146.6 157.5,147 158.1,147 C159.6,147 164,151.7 164,153.3 C164,154 166,155.1 168.5,155.8 C177.8,158.3 178.3,157 170.3,150.9 C167.1,148.6 164.4,146.3 164.2,145.8 C164,145.4 163.4,145 162.9,145 C162.4,145 161.2,144.2 160.2,143.3 C159.3,142.3 157.1,140.5 155.5,139.3 C153.8,138.1 152.8,136.8 153.2,136.5 C154.4,135.3 158.9,138 166.6,144.6 C171.7,149 177.2,152 180.1,152 C182.3,152 180.7,148.9 177.8,147.4 C176,146.5 174.3,145.4 174,145 C173.3,144 156.9,132.1 155.6,131.7 C155,131.4 154.9,130.9 155.3,130.4 C156.3,129.4 162.2,132.5 165.1,135.6 C166.3,136.9 168.1,138 169,138 C169.9,138 173.2,139.8 176.3,142 C179.6,144.2 182.6,145.7 183.5,145.4 C184.3,145 185,144.6 185,144.3 C185,143.6 179,138.7 175.6,136.6 C173.9,135.6 172.2,134.2 171.8,133.6 C170.3,131.4 171.1,130.8 173.5,132.4 C174.8,133.3 176.4,134 177,134 C177.6,134 180.2,135.6 182.7,137.5 C186.9,140.7 193,142.3 193,140.2 C193,138.6 174.8,126 172.4,126 C171.7,126 171,125.6 171,125.2 C171,124.7 169.4,123.7 167.5,123 C165.5,122.2 163.4,121 162.8,120.3 C161,118.1 165,118.8 169.7,121.4 C172,122.8 175,124.2 176.2,124.5 C177.5,124.9 179.5,126.1 180.7,127.2 C182,128.4 184.4,129.3 186.6,129.4 C189.9,129.5 190.3,129.2 190.4,126.8 C190.5,124.4 190.3,124.2 187.8,124.7 C185.9,125.1 183.5,124.3 179.3,121.9 C174.1,118.9 173.8,118.5 176.1,118.2 C177.5,118 181,118.8 183.9,119.9 C190.4,122.5 194.3,122.7 193.8,120.3 C193.6,119.2 191.9,118.2 189.3,117.5 C183.7,116.1 182.1,114.5 184.9,113 C186.1,112.4 187.8,112 188.8,112.1 C192,112.4 194,112 194,111 C194,109.5 190.8,108.2 185.2,107.6 C179.9,107 178.2,106.7 170.5,105 C168.3,104.5 165.2,103.8 163.6,103.5 C159.5,102.6 162.3,100.8 166.5,101.6 C172.6,102.6 178.1,102.7 178.6,101.8 C179,101.2 179.6,101.3 180.1,102.1 C181,103.7 191,104.6 191,103.1 C191,101.4 187.4,100 182.8,100 C180.4,99.9 176.5,99.5 174,98.9 C171.5,98.4 167.6,97.7 165.3,97.3 C160.7,96.7 160.3,96.1 162.2,93.1 C163.1,91.6 163,90.9 161.7,89.6 C160.8,88.7 160.3,87.3 160.6,86.5 C161,85.6 160.6,85 159.6,85 C158.7,85 158,84.5 158,84 C158,82.8 159.7,82 163.2,81.6 C164.5,81.5 166,81.1 166.5,80.8 C167.1,80.5 169.5,79.9 172,79.6 C183.1,77.9 190.9,75.1 191,72.8 C191,71.5 188.6,71.9 182.1,74.4 C175.1,77.2 162,79 162,77.1 C162,76.5 162.6,76 163.4,76 C164.1,76 165.3,75.4 165.9,74.6 C166.5,73.9 168.6,73 170.6,72.7 C174.3,72.1 177,70.5 177,68.9 C177,68.4 176.3,68 175.5,68 C174.7,68 174,68.4 174,68.9 C174,69.3 171.6,70 168.6,70.3 C165.6,70.6 161.1,71.8 158.6,72.9 C155.1,74.4 154,74.6 154,73.6 C154,72.3 156.3,70.8 158.5,70.6 C159.1,70.5 160.6,69.5 161.9,68.3 C163.2,67.1 164.7,66.3 165.2,66.6 C165.7,66.9 168.3,65.8 171,64.1 C173.8,62.4 176.6,61 177.3,61 C179,60.9 182,58.5 182,57.1 C182,54.6 175.7,56.3 169.1,60.7 C167.2,62 164.8,63 163.6,63 C161.7,63 161.8,62.8 164.5,60.5 C166.2,59.1 169.4,57.1 171.7,56.1 C175.6,54.3 179.9,49.6 178.7,48.4 C177.9,47.6 169,52.8 166.2,55.7 C164.9,56.9 163.3,58 162.5,58 C161.8,58 160.8,58.9 160.5,60 C160,61.5 159.3,61.9 158,61.5 C156.9,61.2 155.1,61.4 154,62 C150.1,64.1 150.9,62.4 155.4,58.9 C160.7,54.8 162.5,53.6 166.7,51 C169.5,49.3 174.8,41.4 173.8,40.4 C173.6,40.2 170.8,42.2 167.6,44.8 C158.1,52.5 153.5,56 152.8,56 C150.7,56 152.7,53.3 160.5,45.5 C166.5,39.4 169,36.2 169,34.4 C169,33.1 168.8,32 168.6,32 C168.4,32 162.7,37.7 155.9,44.6 C147.4,53.2 143.4,56.6 143.2,55.5 C143,54.6 144.8,51.4 147.2,48.4 C157.5,35.3 161.1,29 158.2,29 C157.1,29 151.2,35.5 147.8,40.5 C143.7,46.6 138.2,52.5 137.4,51.8 C136.5,50.8 139.3,45.6 144.5,38.5 C147,35.2 149.6,31.4 150.4,30 C152.4,26.4 153.4,21 152.1,21 C150.8,21 145,28.8 145,30.5 C145,31.2 144.1,32.8 142.9,34.1 C141.7,35.4 139.3,38.9 137.4,41.8 C134.5,46.2 132,48.4 132,46.5 C132,45.4 134.8,40.5 138.4,35.1 C140.4,32.2 142,29 142,28 C142,27 142.7,25.7 143.5,25 C145.2,23.6 145.6,16 143.9,16 C143.4,16 141.8,18.4 140.4,21.3 C139,24.1 137.5,27.2 137,28 C135.7,30.2 133.3,35 131.4,39.2 C129.4,43.7 127,45 127,41.6 C127,40.3 127.6,38.7 128.4,38.1 C129.1,37.5 130.3,34.8 131.1,32.2 C131.8,29.6 133.3,25.3 134.5,22.5 C136.7,17.5 137.2,13.5 135.5,13.5 C134.6,13.5 130.2,21.9 126,31.5 C122.5,39.6 121.7,41 120.8,41 C119.7,41 119.8,36.2 121,35.5 C121.6,35.2 122,33.9 122,32.7 C122,31.5 122.9,28.6 124,26.3 C126.3,21.1 127.8,10 126.1,10 C125.5,10 125,11.1 125,12.5 C125,13.9 124.6,15 124.1,15 C123.6,15 122.8,15.9 122.5,17 C122.2,18.1 121.3,19.6 120.7,20.2 C119.5,21.5 117.4,27.8 116.3,33.3 C115.8,36 114.3,37.7 113.3,36.7 C113.1,36.4 113.7,33.1 114.8,29.3 C117.9,18.8 119.9,7.7 119,6 C118,4.3 118.4,3.6 115,13.7 C113.9,17.1 113,20.5 113,21.2 C113,21.9 112.1,24.7 111.1,27.5 C110,30.2 108.9,33.3 108.6,34.4 C108.1,35.9 107.7,36 106.5,35 C105.7,34.3 105.3,33.3 105.6,32.8 C106.2,31.9 107.3,25.7 109.2,13.2 C109.9,8.2 109.9,5.5 109.2,4.8 C107.9,3.5 106,9.1 105.7,15.4 C105.5,17.9 104.8,20.6 104.2,21.2 C103.5,21.9 103,23 103,23.7 C103,24.4 102.6,25 102.1,25 C101.6,25 101.3,20.1 101.4,14 C101.5,1.5 100,-1.2 98.6,9.3 C98.2,13 97.4,16 96.9,16 C95.5,16 94.8,13.9 95.9,12.7 C96.9,11.5 95.8,4.1 94.2,1.6 C92.9,-0.5 92.2,8.7 92.7,21.8 C93.1,33.1 93,35 91.7,35 C90.5,35 90.1,33 89.6,25.3 C88.9,15.2 87.6,8.4 85.8,6.2 C85,5.3 84.4,5.5 83.4,7.5 C82.3,9.6 82.4,10.5 83.7,13 C84.5,14.7 84.9,16.8 84.5,17.8 C83.9,19.4 83.7,19.3 82.4,17.6 C81.6,16.5 81,14.6 81,13.4 C81,11.2 77.4,4 76.3,4 C76,4 76,6.7 76.3,10 C76.9,14.9 76.7,16 75.5,16 C74.7,16 73.3,14.4 72.5,12.3 C71.7,10.3 70.7,9 70.3,9.3 C69.6,10.1 71.1,17.7 74.1,28.5 C76.4,36.8 76.6,40 74.8,38.2 C73.5,36.9 69.2,25.4 68.3,20.5 C67.7,17.3 64.2,12 62.7,12 C62.2,12 62.1,12.8 62.5,13.7 C64.2,17.9 64.2,19 62.6,19 C61.7,19 61,18.5 61,17.8 C61,16.5 58.1,13 57,13 C56,13 57.7,20.7 59.5,24.4 C60.3,25.9 61.2,28.8 61.6,30.9 C61.9,32.9 63,36.7 64.1,39.3 C66.2,44.3 65.9,47 63.4,44.9 C62.7,44.3 61.7,42.2 61.4,40.1 C60.6,35.8 51.6,17.7 49.3,15.8 C47.5,14.4 47.5,13.9 49.6,23.9 C50.2,26.6 50,26.8 48.1,26.3 C46.9,26 46,26.2 46,26.9 C46,28.4 51.5,39.8 53.6,42.7 C54.6,44.1 54.8,45 54.1,45.5 C53.5,45.8 53,45.7 53,45.1 C53,44.5 51.7,42.6 50.1,40.8 C48.6,39 47,36.5 46.6,35.3 C45.9,33.1 39.3,27.4 38.4,28.3 C38.1,28.6 38.6,30.2 39.4,31.9 C40.3,33.5 41,36.2 41,37.8 C41,41 42.6,43 45.2,43 C46.2,43 47,43.7 47,44.5 C47,45.3 48.3,47.3 50,48.8 C53.1,51.8 54.1,56 51.7,56 C50.9,56 48.9,54 47.1,51.5 C45.3,49 43.5,47 42.9,47 C42.4,47 42,46.5 42,45.8 C42,44.4 33.1,35 31.8,35 C29,35 34.9,47.9 37.8,48 C38.4,48 39,48.6 39,49.4 C39,50.1 40.6,52 42.5,53.4 C44.4,54.9 46,57 46,58 C46,59.4 44.5,58.5 40,54.1 C36.7,50.9 34,47.5 34,46.5 C34,45.2 33.4,44.9 31.8,45.3 C30.6,45.7 29,45.4 28.3,44.8 C26.1,43 25.5,44.8 27.5,47 C30.3,50.1 28,51.6 24.6,48.9 C23.1,47.7 21.6,47 21.3,47.3 C20.8,47.9 26.1,55 31.4,60.8 C34.1,63.7 34.2,64 32.3,64 C31.2,64 28,62.2 25.2,60 C20.5,56.2 16,54.8 16,57 C16,57.6 16.4,58 17,58 C17.5,58 18.8,58.8 19.8,59.7 C20.7,60.7 22.9,62.5 24.5,63.7 C29.5,67.3 26.6,67.3 20.4,63.7 C14.1,60 10,58.4 10,59.6 C10,60.7 15.1,65.2 19.7,68.2 C22.1,69.7 24,71.5 24,72.1 C24,73.3 23.2,73.1 16.1,70.5 C13.7,69.6 11.5,69.1 11.3,69.4 C10.5,70.2 16.3,74.9 18,75 C18.8,75 21.3,76.1 23.5,77.5 C25.7,78.8 29,80.6 30.8,81.4 C32.5,82.2 34,83.4 34,83.9 C34,85.2 30.8,85.4 29.4,84.2 C28.1,83 17,78.6 14.5,78.3 C13.4,78.2 11.2,77.8 9.7,77.5 C7.7,77.2 7,77.4 7.2,78.3 C7.5,78.9 8.6,79.6 9.8,79.8 C11,80 12,80.5 12,80.9 C12,81.4 13.4,82 15,82.4 C16.7,82.7 18,83.4 18,84.1 C18,84.8 16.9,84.9 15.1,84.5 C9.5,83.3 6.4,83.1 5,84 C3.2,85.1 8.3,87.4 14.7,88.5 C17.1,88.9 19.2,89.6 19.6,90.1 C19.9,90.6 20.5,90.8 21,90.5 C21.4,90.2 23.1,90.7 24.6,91.5 C26.2,92.3 28.1,93 28.8,93 C29.4,93 30,93.4 30,93.8 C30,94.2 28.8,94.5 27.2,94.4 C25.7,94.3 24.5,94.1 24.5,94 C24.5,93.7 17.4,93.1 9.8,92.6 C3.3,92.2 2,92.4 2,93.7 C2,94.6 2.6,95 3.5,94.6 C5.3,94 8,94.8 8,96.1 C8,96.6 7,97 5.7,97 C4.4,97 3,97.3 2.7,97.7 C2,98.4 6.5,101 8.5,101 C9.5,101 12,105 12,106.5 C12,107.9 10,106.7 9.5,105 C8.7,102.4 6,102.4 6,104.9 C6,106 5.6,107.1 5.2,107.4 C4,108.1 3.8,116 5,116 C5.5,116 6.7,115.1 7.7,114.1 C9.1,112.6 11.3,112.1 18.3,111.9 C26.4,111.5 28.5,112 26,113.5 C25.5,113.8 23.1,114.1 20.8,114.1 C18.4,114.1 14.1,114.9 11.3,115.8 C6,117.4 4.3,119 7.9,119 C9.3,119 9.7,119.5 9.3,121 C9,122.1 7.9,123 6.9,123 C5.9,123 4.8,123.5 4.5,124 C3.6,125.5 7.3,125.2 18.5,123.1 C24,122 28.6,121.3 28.9,121.5 C29.1,121.7 29,122.6 28.7,123.5 C28.3,124.5 26.8,125 24.1,125 C21,125 20.1,125.4 19.7,127.2 C19.2,129 18.9,129.1 17.5,128 C16.2,126.9 15.5,126.9 13.5,128 C9.6,130.1 10.6,131 16,130.5 C20.6,130 22.5,131 20,132.5 C18.7,133.3 18.7,137 20,137 C20.6,137 21.3,136.4 21.6,135.6 C21.9,134.8 22.9,134.4 24.1,134.7 C25.1,135 26.7,134.6 27.6,133.9 C28.5,133.2 30.2,132.5 31.3,132.3 C35.4,131.7 36.2,131.1 35.5,129 C35,127.6 35.3,127 36.4,127 C37.3,127 38,127.5 38,128 C38,128.6 38.7,129 39.5,129 C42.4,129 41,131.6 37.2,133.3 C35.1,134.2 32.9,135 32.3,135 C31.7,135 29.7,136.1 27.8,137.3 C25.9,138.6 23.1,140 21.6,140.4 C20.1,140.8 18.2,141.6 17.3,142.3 C13.5,145.4 11.9,147.2 12.4,147.7 C13,148.3 21.1,146.1 22,145 C22.3,144.7 24.2,143.6 26.3,142.6 C28.3,141.5 30,140 30,139.2 C30,138 30.3,138 31.5,139 C32.6,139.9 33.4,139.9 34.3,139.2 C36.1,137.7 44.2,135 45.2,135.6 C46.4,136.3 39.6,141.6 33.9,144.5 C26.6,148.3 20.5,154 23.9,154 C26,154 43.6,145.1 45.4,143.1 C47.7,140.5 51,140.3 51,142.8 C51,145.4 49.8,146.8 46.8,147.5 C45.3,147.9 43.6,148.8 42.9,149.6 C42.3,150.4 41.2,151 40.6,151 C39.9,151 38.4,152.1 37.2,153.5 C36,154.9 34.4,156 33.7,156 C33,156 30.6,157.8 28.5,160 C25.1,163.4 24.9,164 26.7,164 C27.8,164 30.8,162.4 33.3,160.5 C40.3,155.2 42.5,156.1 36.9,162.1 C33.6,165.7 31.6,168.9 32.3,169.6 C33.1,170.4 39.8,165.4 45,160.1 C47.8,157.3 50.2,155 50.5,155 C50.8,155 52.2,153.8 53.5,152.3 C54.8,150.7 56.2,149.9 56.6,150.3 C57,150.7 56.2,152.2 54.7,153.6 C53.2,155 52,156.7 52,157.5 C52,158.2 50.5,160.3 48.8,162.1 C46.2,164.7 40,175 40,176.7 C40,176.9 41.1,176.5 42.4,175.8 C44.6,174.6 54,163.9 54,162.6 C54,162.3 54.8,161.2 55.8,160.2 C56.7,159.3 58.5,157.1 59.7,155.5 C61.4,153.1 62.1,152.8 63.1,153.7 C64.1,154.7 63.7,155.8 61.5,159.2 C59.9,161.6 57.3,164.8 55.8,166.4 C51.8,170.5 43.4,184.7 44.4,185.7 C45.3,186.6 54,178.8 54,177.1 C54,175.1 59.7,167 61.1,167 C62.6,167 62.1,169 60,171.7 C58.9,173.1 58,174.9 58,175.7 C58,176.4 56.8,178.8 55.4,181 C53.9,183.2 53,185.4 53.5,185.8 C54.3,186.7 59.6,180.7 61.7,176.5 C65.1,169.4 70.4,162 72,162 C73.1,162 71.9,167.4 70.6,168.5 C68.1,170.7 63,178.5 63,180.1 C63,181.1 62.6,182.1 62.1,182.4 C61,183.1 60,188 61,188 C63.3,188 66.9,183.5 68,179.3 C68.7,176.7 70.1,173.6 71,172.5 C71.9,171.4 73.1,169.6 73.5,168.5 C74.3,166.6 74.4,166.6 74.7,168.7 C75.1,171 73.2,177.4 70.5,182.7 C69.6,184.5 69,187.4 69.2,189.2 L69.5,192.5 L72.3,187.6 C73.8,184.9 75,181.9 75,180.9 C75,178.7 76.8,177.4 78.2,178.8 C78.9,179.5 78.7,180.9 77.5,183.2 C75.5,187.1 73.9,195.8 75.1,196.6 C76.6,197.5 80,193.6 80,190.8 C80,189.2 80.5,188 81,188 C81.6,188 82,189.5 82,191.4 C82,194.6 84,197.5 84.7,195.4 C85.8,192.4 86.9,191.6 88.3,192.9 C90.1,194.4 90.6,193.7 91.5,188.3 C92.4,182.4 93.6,182.2 94.5,187.8 C95.2,192.6 96.6,195.3 98,194.5 C98.4,194.2 98.9,190.1 99,185.3 C99.3,176.8 99.5,171.4 99.9,167.8 C99.9,166.8 100.4,166 100.9,166 C101.4,166 102.1,171.3 102.5,177.8 C103.5,193.5 103.4,193.2 104.9,195.9 C107.2,200.1 108.4,196.8 108.1,187.2 Z M23.6,165.3 C22.9,164.6 21,166 21,167.2 C21,167.8 21.6,167.8 22.5,167 C23.4,166.3 23.8,165.5 23.6,165.3 Z M11.8,140 C14.4,140 15.6,138.8 16.4,135.7 L17.1,132.9 L13.3,134.9 C9.3,136.9 5.1,141.9 8.5,140.6 C9.4,140.3 10.9,140 11.8,140 Z M182.3,93.1 C183.9,91.5 183.1,91.2 175,90.9 C167.2,90.6 165,91.1 165,93.5 C165,94.5 166.8,94.8 173.1,94.5 C177.6,94.3 181.7,93.7 182.3,93.1 Z M192.1,94 C193.1,93.4 194,92.5 194,92 C194,90.5 189,90.8 187.5,92.4 C185,94.8 188.3,96 192.1,94 Z M170,86 C170,83.9 168.5,83.3 167.5,85 C167,85.8 166.4,85.7 165.4,84.9 C163.7,83.5 163.5,85.1 165.2,86.8 C167.1,88.7 170,88.3 170,86 Z M189.1,84.8 C190.7,82.4 190,82.1 183.8,82.6 C172.2,83.4 169.6,84.2 171.6,86.3 C172.8,87.5 188.3,86.2 189.1,84.8 Z M183.7,67.4 L186.5,64.8 L182.6,65.4 C178,66 177.8,66.2 178.6,68.4 C179.4,70.6 180.4,70.4 183.7,67.4 Z" id="Shape"></path>
                    <path d="M115.6,186.8 C113.4,176.3 112.6,167 113.8,167 C114.4,167 115.2,168.7 115.5,170.8 C115.8,172.8 116.8,177.3 117.6,180.7 C119.4,188.4 119.4,189 117.5,189 C116.7,189 115.8,188 115.6,186.8 Z" id="Path"></path>
                    <path d="M81,185 C81,184.5 81.5,184 82,184 C82.6,184 83,184.5 83,185 C83,185.6 82.6,186 82,186 C81.5,186 81,185.6 81,185 Z" id="Path"></path>
                    <path d="M92.6,181.1 C91.8,179.9 92.9,177 94.1,177 C95.3,177 95.3,180.7 94.1,181.5 C93.6,181.8 92.9,181.6 92.6,181.1 Z" id="Path"></path>
                    <path d="M78,175.6 C78,174.7 78.5,174 79,174 C79.6,174 80,174.4 80,174.9 C80,175.5 79.6,176.2 79,176.5 C78.5,176.8 78,176.4 78,175.6 Z" id="Path"></path>
                    <path d="M93,171 C93,169.9 93.5,169 94,169 C94.6,169 95,169.9 95,171 C95,172.1 94.6,173 94,173 C93.5,173 93,172.1 93,171 Z" id="Path"></path>
                    <path d="M64,163.3 C64,161.4 65.1,159 66.1,159 C67.4,159 67.2,160.4 65.5,162.6 C64.7,163.6 64,164 64,163.3 Z" id="Path"></path>
                    <path d="M92,157.1 C91.2,156.5 89.6,156.3 88.4,156.6 C87.2,156.9 84.5,156.4 82.4,155.4 C80.3,154.5 78,153.8 77.4,153.9 C76.8,154 75.7,153.3 75,152.5 C74.3,151.7 73,151 72,151 C71,151 69.7,150.3 69,149.5 C68.3,148.7 66.9,148 65.9,148 C64.8,148 64,147.4 64,146.6 C64,144.7 58.3,139 56.4,139 C55.4,139 55,137.8 55,135 C55,131.1 53.8,129.8 52.4,132.2 C51.5,133.6 49,130.4 49,127.9 C49,127 48.3,125.9 47.4,125.6 C45.8,125 45.8,124 47.6,116.6 C48.2,114 48.1,113.8 46.5,114.4 C44,115.3 43,113.5 43,108 C43,105.4 42.5,102.9 41.8,102.2 C40.9,101.3 40.9,100.2 41.8,97.3 C42.5,95.2 43.9,90.2 45,86.1 C46.1,82 47.9,77.8 49,76.8 C50.3,75.6 50.9,74.1 50.5,73.1 C50.2,72.1 50.6,70.8 51.3,70.1 C52.1,69.5 53.5,67 54.5,64.5 C55.5,61.7 56.8,60 57.8,60 C58.7,60 61.4,59.3 63.8,58.3 C67.2,57 68,56.3 67.8,54.6 C67.3,50.9 78.2,46 87.1,46 C90.3,46 92,45.4 93.2,44 C94.7,42.3 95.9,42.1 101.4,42.5 C105,42.7 109.3,43.6 110.9,44.5 C112.6,45.3 114.6,46 115.5,46 C116.3,46 117,46.5 117,47.1 C117,47.6 118.6,48.7 120.4,49.5 C122.3,50.3 125.3,52.8 127.1,55 C128.9,57.2 131,59 131.7,59 C134,59 138.1,62.2 140.6,65.9 C141.9,67.9 143.9,70.6 145,72 C146.1,73.4 147.6,76.8 148.3,79.7 C149.5,84.2 149.5,85.1 148.1,86.4 C146.8,87.8 146.8,88.2 148.7,90.2 C151.5,93.3 152.2,103 150.5,115.2 C148.8,127.2 146.8,131.3 138.5,139.4 C133,144.8 119.5,153.3 113.5,155.3 C107.1,157.3 94,158.4 92,157.1 Z M102.2,100.9 C101.8,97.6 100,95.9 97.1,96.2 C93.6,96.6 92.9,101.1 96.1,103.3 C99,105.4 102.6,104 102.2,100.9 Z" id="Shape"></path>
                    <path d="M162.3,128.2 C160.6,126.7 158.4,125 157.4,124.4 C156.3,123.8 156,123.1 156.6,122.7 C158.4,121.6 169,128 169,130.2 C169,131.9 165.4,130.9 162.3,128.2 Z" id="Path"></path>
                    <path d="M31,122 C31,121.5 31.5,121 32,121 C32.6,121 33,121.5 33,122 C33,122.6 32.6,123 32,123 C31.5,123 31,122.6 31,122 Z" id="Path"></path>
                    <path d="M168.1,117.1 C166.7,116.7 165.5,115.9 165.2,115.1 C164.9,114.2 165.6,114.2 167.9,115.4 C169.6,116.3 171,117.3 171,117.5 C171,117.8 170.9,118 170.8,117.9 C170.6,117.8 169.4,117.5 168.1,117.1 Z" id="Path"></path>
                    <path d="M178,113 C177.2,112.5 175.1,112 173.4,112 C170.2,112 165,110 165,108.7 C165,107.8 173.7,108.6 177.1,109.8 C180.2,111 182.9,114 180.9,114 C180.1,114 178.8,113.5 178,113 Z" id="Path"></path>
                    <path d="M20.5,103 C20.2,102.5 20.6,102 21.4,102 C22.3,102 23,102.5 23,103 C23,103.6 22.6,104 22.1,104 C21.5,104 20.8,103.6 20.5,103 Z" id="Path"></path>
                    <path d="M26,103 C26,102.5 26.5,102 27,102 C27.6,102 28,102.5 28,103 C28,103.6 27.6,104 27,104 C26.5,104 26,103.6 26,103 Z" id="Path"></path>
                    <path d="M30,70 C30,69.5 30.5,69 31,69 C31.6,69 32,69.5 32,70 C32,70.6 31.6,71 31,71 C30.5,71 30,70.6 30,70 Z" id="Path"></path>
                    <path d="M38.6,62.1 C37.5,60.9 37.3,60 37.9,59.6 C38.4,59.2 39.4,59.9 40,61.1 C41.5,63.9 40.7,64.5 38.6,62.1 Z" id="Path"></path>
                    <path d="M148.2,58.3 C148.6,55.9 150.6,55.6 150.6,58 C150.6,59.1 150,60 149.2,60 C148.5,60 148,59.2 148.2,58.3 Z" id="Path"></path>
                    <path d="M68,38 C68,37.5 68.5,37 69,37 C69.6,37 70,37.5 70,38 C70,38.6 69.6,39 69,39 C68.5,39 68,38.6 68,38 Z" id="Path"></path>
                    <path d="M66.7,34.3 C65.6,33.3 65.9,30 67,30 C67.6,30 68,30.4 68,30.9 C68,31.4 68.3,32.5 68.6,33.4 C69.2,35 67.9,35.6 66.7,34.3 Z" id="Path"></path>
                    <path d="M96.6,21.1 C96.2,20.4 96.1,19.6 96.4,19.3 C97.3,18.4 98.3,19.7 97.8,21.1 C97.4,22.2 97.2,22.2 96.6,21.1 Z" id="Path"></path>
                </g>
            </g>
            <g id="ochema" transform="translate(247.360000, 35.720000)" fill="#DAA520" fill-rule="nonzero">
                <path d="M86.76,253.3 C70.2132506,253.3 55.3667324,249.503371 42.22,241.91 C29.0732676,234.316629 18.8167035,223.776734 11.45,210.29 C4.0832965,196.803266 0.4,181.446753 0.4,164.22 C0.4,146.993247 4.0832965,131.636734 11.45,118.15 C18.8167035,104.663266 29.0732676,94.1800374 42.22,86.7 C55.3667324,79.2199626 70.2132506,75.48 86.76,75.48 C99.6800646,75.48 111.636612,77.9166423 122.63,82.79 C133.623388,87.6633577 142.74663,94.7466202 150,104.04 L145.24,109.14 C138.666634,100.073288 130.280051,93.273356 120.08,88.74 C109.879949,84.206644 98.7733934,81.94 86.76,81.94 C71.5732574,81.94 57.9167273,85.3966321 45.79,92.31 C33.6632727,99.2233679 24.200034,108.969937 17.4,121.55 C10.599966,134.130063 7.2,148.353254 7.2,164.22 C7.2,180.313414 10.599966,194.593271 17.4,207.06 C24.200034,219.526729 33.6632727,229.273298 45.79,236.3 C57.9167273,243.326702 71.5732574,246.84 86.76,246.84 C98.7733934,246.84 109.879949,244.573356 120.08,240.04 C130.280051,235.506644 138.666634,228.706712 145.24,219.64 L150,224.74 C142.74663,234.03338 133.623388,241.116642 122.63,245.99 C111.636612,250.863358 99.6800646,253.3 86.76,253.3 Z M268.62,75.48 C290.606777,75.48 307.833271,81.7699371 320.3,94.35 C332.766729,106.930063 339,125.006549 339,148.58 L339,252.28 L332.2,252.28 L332.2,148.58 C332.2,127.046559 326.703388,110.556724 315.71,99.11 C304.716612,87.6632761 289.133434,81.94 268.96,81.94 C246.066552,81.94 227.990066,88.7965981 214.73,102.51 C201.469934,116.223402 194.84,134.299888 194.84,156.74 L194.84,252.28 L188.04,252.28 L188.04,2.84217094e-14 L194.84,2.84217094e-14 L194.84,123.42 C200.280027,108.459925 209.346603,96.7300425 222.04,88.23 C234.733397,79.7299575 250.259908,75.48 268.62,75.48 Z M542.28,164.22 L385.88,164.22 C385.88,180.086746 389.393298,194.309937 396.42,206.89 C403.446702,219.470063 413.136605,229.273298 425.49,236.3 C437.843395,243.326702 451.72659,246.84 467.14,246.84 C479.153393,246.84 490.429947,244.51669 500.97,239.87 C511.510053,235.22331 520.179966,228.480044 526.98,219.64 L531.74,224.4 C524.033295,233.69338 514.51339,240.833308 503.18,245.82 C491.84661,250.806692 479.833397,253.3 467.14,253.3 C450.366583,253.3 435.350066,249.503371 422.09,241.91 C408.829934,234.316629 398.403371,223.720068 390.81,210.12 C383.216629,196.519932 379.42,181.220085 379.42,164.22 C379.42,147.219915 382.933298,131.976734 389.96,118.49 C396.986702,105.003266 406.676605,94.4633713 419.03,86.87 C431.383395,79.2766287 445.26659,75.48 460.68,75.48 C475.866743,75.48 489.693271,79.2199626 502.16,86.7 C514.626729,94.1800374 524.429964,104.493268 531.57,117.64 C538.710036,130.786732 542.28,145.746583 542.28,162.52 L542.28,164.22 Z M460.68,81.94 C447.079932,81.94 434.726722,85.2266338 423.62,91.8 C412.513278,98.3733662 403.6167,107.439942 396.93,119 C390.2433,130.560058 386.560003,143.479929 385.88,157.76 L535.82,157.76 C535.139997,143.479929 531.400034,130.560058 524.6,119 C517.799966,107.439942 508.846722,98.3733662 497.74,91.8 C486.633278,85.2266338 474.280068,81.94 460.68,81.94 Z M803.36,75.48 C824.666773,75.48 841.383273,81.7699371 853.51,94.35 C865.636727,106.930063 871.7,125.006549 871.7,148.58 L871.7,252.28 L864.9,252.28 L864.9,148.58 C864.9,127.046559 859.573387,110.556724 848.92,99.11 C838.266613,87.6632761 823.193431,81.94 803.7,81.94 C781.486556,81.94 763.920065,88.7965981 751,102.51 C738.079935,116.223402 731.62,134.299888 731.62,156.74 L731.62,252.28 L724.82,252.28 L724.82,148.58 C724.82,127.046559 719.493387,110.556724 708.84,99.11 C698.186613,87.6632761 683.113431,81.94 663.62,81.94 C641.406556,81.94 623.840065,88.7965981 610.92,102.51 C597.999935,116.223402 591.54,134.299888 591.54,156.74 L591.54,252.28 L584.74,252.28 L584.74,76.5 L591.54,76.5 L591.54,123.08 C596.753359,108.119925 605.593271,96.4467086 618.06,88.06 C630.526729,79.6732914 645.599912,75.48 663.28,75.48 C681.186756,75.48 695.919942,79.9566219 707.48,88.91 C719.040058,97.8633781 726.519983,110.839915 729.92,127.84 C734.453356,111.746586 743.123269,98.9967137 755.93,89.59 C768.736731,80.1832863 784.546573,75.48 803.36,75.48 Z M988.96,75.48 C1009.3601,75.48 1024.94328,80.7499473 1035.71,91.29 C1046.47672,101.830053 1051.86,117.073234 1051.86,137.02 L1051.86,252.28 L1045.06,252.28 L1045.06,214.88 C1039.39331,226.893393 1030.83672,236.299966 1019.39,243.1 C1007.94328,249.900034 994.173414,253.3 978.08,253.3 C958.586569,253.3 943.343388,248.823378 932.35,239.87 C921.356612,230.916622 915.86,218.960075 915.86,204 C915.86,189.946596 920.789951,178.55671 930.65,169.83 C940.510049,161.10329 956.433223,156.74 978.42,156.74 L1045.06,156.74 L1045.06,137.36 C1045.06,118.999908 1040.35671,105.17338 1030.95,95.88 C1021.54329,86.5866202 1007.66009,81.94 989.3,81.94 C976.606603,81.94 964.763388,84.1499779 953.77,88.57 C942.776612,92.9900221 933.313373,98.9399626 925.38,106.42 L920.62,101.66 C929.006709,93.4999592 939.206607,87.0966899 951.22,82.45 C963.233393,77.8033101 975.813268,75.48 988.96,75.48 Z M1045.06,163.2 L978.08,163.2 C959.039905,163.2 945.043378,166.82663 936.09,174.08 C927.136622,181.33337 922.66,191.193271 922.66,203.66 C922.66,217.0334 927.533285,227.573295 937.28,235.28 C947.026715,242.986705 960.626579,246.84 978.08,246.84 C1010.72016,246.84 1033.04661,231.88015 1045.06,201.96 L1045.06,201.96 L1045.06,163.2 Z" id="chema"></path>
            </g>
        </g>
    </g>
</svg>