<?xml version="1.0" encoding="UTF-8"?>
<svg width="335px" height="100px" viewBox="0 0 335 100" version="1.1" xmlns="http://www.w3.org/2000/svg" xmlns:xlink="http://www.w3.org/1999/xlink" style="background: #FFFFFF;">
    <!-- Generator: Sketch 58 (84663) - https://sketch.com -->
    <title>Slice</title>
    <desc>Created with Sketch.</desc>
    <g id="Page-1" stroke="none" stroke-width="1" fill="none" fill-rule="evenodd">
        <g id="Group">
            <rect id="Rectangle" stroke="#FFFFFF" fill="#FFFFFF" x="0.5" y="0.5" width="334" height="99"></rect>
            <g id="vectorised-sun" transform="translate(10.000000, 25.000000)" fill-rule="nonzero">
                <g id="layer101" transform="translate(0.497462, 0.248756)" fill="#DAA520">
                    <polygon id="Path" points="0 24.5024876 0 0 23.8781726 0 47.7563452 0 47.7563452 24.5024876 47.7563452 49.0049751 23.8781726 49.0049751 0 49.0049751"></polygon>
                </g>
                <g id="layer102" fill="#FFFFFF">
                    <path d="M0,25 L0,0 L24.5,0 L49,0 L49,25 L49,50 L24.5,50 L0,50 L0,25 Z M26.8878173,46.5671642 C26.8629442,45.3731343 26.7385787,44.0049751 26.6142132,43.5323383 C26.4649746,43.0348259 26.4649746,42.3383085 26.5893401,41.9154229 L26.7883249,41.1691542 L26.9375635,41.7910448 C27.1116751,42.5621891 27.3852792,44.800995 27.4598985,46.1442786 C27.4847716,46.7412935 27.7335025,47.4626866 28.106599,47.960199 C28.8030457,48.9054726 29.0020305,48.9552239 29.1761421,48.2089552 C29.3253807,47.6616915 29.3253807,47.6616915 30.0715736,48.358209 C31.0167513,49.2537313 31.3898477,49.0547264 30.942132,47.8358209 C30.7680203,47.3134328 30.6187817,46.641791 30.5939086,46.318408 C30.5939086,45.9950249 30.4944162,45.5472637 30.3700508,45.3233831 C30.0218274,44.6268657 29.7979695,42.5373134 30.0715736,42.5373134 C30.2208122,42.5373134 30.3949239,42.9353234 30.4944162,43.4079602 C30.5690355,43.880597 30.7431472,44.3532338 30.8675127,44.4278607 C30.9918782,44.5024876 31.0913706,44.9253731 31.1162437,45.3482587 C31.1411168,46.318408 31.8375635,47.6119403 32.4345178,47.7114428 C32.8076142,47.7860697 32.8573604,47.6616915 32.6832487,46.5920398 C32.6086294,45.9452736 32.4345178,45.2985075 32.3350254,45.1492537 C32.235533,45.0248756 32.0614213,44.5273632 31.9619289,44.079602 C31.8624365,43.6318408 31.6385787,42.960199 31.4395939,42.5870647 C31.2406091,42.2139303 31.0913706,41.7164179 31.0913706,41.4925373 C31.0913706,40.6218905 31.4893401,41.0696517 32.0614213,42.6119403 C32.3847716,43.4577114 32.8076142,44.5024876 32.9817259,44.9502488 C33.1807107,45.3731343 33.3299492,45.9452736 33.3299492,46.2437811 C33.3299492,46.5422886 33.4791878,46.7661692 33.6781726,46.7661692 C33.8771574,46.7661692 34.2253807,46.840796 34.4492386,46.9402985 C34.822335,47.0646766 34.8472081,46.9651741 34.6979695,46.2437811 C34.5984772,45.7711443 34.3746193,45.1243781 34.2005076,44.7761194 C33.7030457,43.8308458 32.6583756,41.2437811 32.484264,40.5472637 C32.3101523,39.9502488 32.3350254,39.9502488 32.9319797,40.6716418 C33.280203,41.0945274 33.9517766,42.1393035 34.3746193,42.9850746 C35.2949239,44.7761194 36.7873096,46.5174129 37.384264,46.5174129 C37.9812183,46.5174129 37.8817259,46.0199005 37.0609137,44.9004975 C36.6629442,44.3532338 36.1406091,43.5820896 35.9167513,43.159204 C35.6928934,42.761194 35.1456853,41.9154229 34.7228426,41.2935323 C33.9020305,40.1492537 33.0812183,38.6318408 33.0812183,38.2835821 C33.0812183,37.9850746 34.1258883,39.1293532 34.6233503,39.9502488 C34.8472081,40.3482587 35.319797,41.1940299 35.6680203,41.8159204 C36.3147208,43.0348259 37.4588832,44.1293532 38.3294416,44.4029851 C39.6228426,44.8258706 39.2248731,44.079602 35.6431472,39.4278607 C34.3746193,37.8109453 34.1010152,37.3134328 34.5238579,37.3134328 C34.822335,37.3383085 35.8172589,38.2338308 35.8172589,38.5074627 C35.8172589,38.6567164 36.0908629,38.9800995 36.4142132,39.2288557 C36.7375635,39.4776119 37.1604061,40.0248756 37.384264,40.4477612 C38.1055838,41.840796 40.7918782,43.9552239 40.7918782,43.1094527 C40.7918782,42.761194 39.3989848,40.920398 38.3045685,39.8258706 C36.8619289,38.3333333 35.5187817,36.3930348 35.8172589,36.1940299 C35.9416244,36.119403 36.2152284,36.3930348 36.4390863,36.8159204 C36.6380711,37.2139303 36.9614213,37.5621891 37.135533,37.5621891 C37.3096447,37.5621891 37.6329949,37.761194 37.8568528,38.0099502 C38.0807107,38.2338308 38.677665,38.8059701 39.1502538,39.2537313 C39.6477157,39.7263682 40.0456853,40.1741294 40.0456853,40.2736318 C40.0456853,40.4726368 41.3888325,41.2935323 41.7619289,41.2935323 C42.4335025,41.2935323 41.8614213,40.4975124 39.5233503,38.1094527 C38.1304569,36.6915423 37.0857868,35.4726368 37.1604061,35.3731343 C37.3593909,35.199005 39.0507614,36.0696517 39.0507614,36.3681592 C39.0507614,36.4676617 39.1751269,36.5671642 39.3243655,36.5671642 C39.6974619,36.5671642 40.7918782,37.7363184 40.7918782,38.1343284 C40.7918782,38.3084577 41.2893401,38.5820896 41.9111675,38.7562189 C44.2243655,39.3781095 44.348731,39.0547264 42.3588832,37.5373134 C41.5629442,36.9651741 40.8913706,36.3930348 40.8416244,36.2686567 C40.7918782,36.1691542 40.6426396,36.0696517 40.5182741,36.0696517 C40.3939086,36.0696517 40.0954315,35.8706468 39.8467005,35.6467662 C39.6228426,35.39801 39.0756345,34.9502488 38.677665,34.6517413 C38.2548223,34.3532338 38.0060914,34.0298507 38.1055838,33.9552239 C38.4040609,33.6567164 39.5233503,34.3283582 41.4385787,35.9701493 C42.7071066,37.0646766 44.0751269,37.8109453 44.7964467,37.8109453 C45.3436548,37.8109453 44.9456853,37.039801 44.2243655,36.6666667 C43.7766497,36.4427861 43.3538071,36.1691542 43.2791878,36.0696517 C43.1050761,35.8208955 39.0258883,32.8606965 38.7025381,32.761194 C38.5532995,32.6865672 38.5284264,32.5621891 38.6279188,32.4378109 C38.8766497,32.1890547 40.3441624,32.960199 41.0654822,33.7313433 C41.3639594,34.0547264 41.8116751,34.3283582 42.035533,34.3283582 C42.2593909,34.3283582 43.080203,34.7761194 43.851269,35.3233831 C44.6720812,35.8706468 45.4182741,36.2437811 45.642132,36.1691542 C45.8411168,36.0696517 46.0152284,35.9701493 46.0152284,35.8955224 C46.0152284,35.721393 44.5228426,34.5024876 43.6771574,33.9800995 C43.2543147,33.7313433 42.8314721,33.3830846 42.7319797,33.2338308 C42.3588832,32.6865672 42.557868,32.5373134 43.1548223,32.9353234 C43.4781726,33.159204 43.8761421,33.3333333 44.0253807,33.3333333 C44.1746193,33.3333333 44.8213198,33.7313433 45.4431472,34.2039801 C46.4878173,35 48.0050761,35.39801 48.0050761,34.8756219 C48.0050761,34.4776119 43.4781726,31.3432836 42.8812183,31.3432836 C42.7071066,31.3432836 42.5329949,31.2437811 42.5329949,31.1442786 C42.5329949,31.0199005 42.1350254,30.7711443 41.6624365,30.5970149 C41.1649746,30.39801 40.6426396,30.0995025 40.493401,29.9253731 C40.0456853,29.3781095 41.0406091,29.5522388 42.2096447,30.199005 C42.7817259,30.5472637 43.5279188,30.8955224 43.8263959,30.9701493 C44.1497462,31.0696517 44.6472081,31.3681592 44.9456853,31.641791 C45.2690355,31.9402985 45.8659898,32.1641791 46.413198,32.1890547 C47.2340102,32.2139303 47.3335025,32.1393035 47.3583756,31.5422886 C47.3832487,30.9452736 47.3335025,30.8955224 46.7116751,31.0199005 C46.2390863,31.119403 45.642132,30.920398 44.5974619,30.3233831 C43.3040609,29.5771144 43.2294416,29.4776119 43.8015228,29.4029851 C44.1497462,29.3532338 45.0203046,29.5522388 45.7416244,29.8258706 C47.3583756,30.4726368 48.3284264,30.5223881 48.2040609,29.9253731 C48.1543147,29.6517413 47.7314721,29.4029851 47.0847716,29.2288557 C45.6918782,28.880597 45.2939086,28.4825871 45.9903553,28.1094527 C46.2888325,27.960199 46.7116751,27.8606965 46.9604061,27.8855721 C47.7563452,27.960199 48.2538071,27.8606965 48.2538071,27.6119403 C48.2538071,27.238806 47.457868,26.9154229 46.0649746,26.7661692 C44.7467005,26.6169154 44.3238579,26.5422886 42.4086294,26.119403 C41.8614213,25.9950249 41.0903553,25.8208955 40.6923858,25.7462687 C39.6725888,25.5223881 40.3690355,25.0746269 41.4137056,25.2736318 C42.9309645,25.5223881 44.2989848,25.5472637 44.4233503,25.3233831 C44.5228426,25.1741294 44.6720812,25.199005 44.7964467,25.39801 C45.0203046,25.7960199 47.5076142,26.0199005 47.5076142,25.6467662 C47.5076142,25.2238806 46.6121827,24.8756219 45.4680203,24.8756219 C44.871066,24.8507463 43.9010152,24.7512438 43.2791878,24.60199 C42.6573604,24.4776119 41.6873096,24.3034826 41.1152284,24.2039801 C39.971066,24.0547264 39.8715736,23.9054726 40.3441624,23.159204 C40.5680203,22.7860697 40.5431472,22.6119403 40.219797,22.2885572 C39.9959391,22.0646766 39.8715736,21.7164179 39.9461929,21.5174129 C40.0456853,21.2935323 39.9461929,21.1442786 39.6974619,21.1442786 C39.4736041,21.1442786 39.2994924,21.0199005 39.2994924,20.8955224 C39.2994924,20.5970149 39.722335,20.39801 40.5928934,20.2985075 C40.9162437,20.2736318 41.2893401,20.1741294 41.4137056,20.0995025 C41.5629442,20.0248756 42.1598985,19.8756219 42.7817259,19.800995 C45.5426396,19.3781095 47.4827411,18.681592 47.5076142,18.1094527 C47.5076142,17.7860697 46.9106599,17.8855721 45.2939086,18.5074627 C43.5527919,19.2039801 40.2944162,19.6517413 40.2944162,19.1791045 C40.2944162,19.0298507 40.4436548,18.9054726 40.6426396,18.9054726 C40.8167513,18.9054726 41.1152284,18.7562189 41.264467,18.5572139 C41.4137056,18.3830846 41.9360406,18.159204 42.4335025,18.0845771 C43.3538071,17.9353234 44.0253807,17.5373134 44.0253807,17.1393035 C44.0253807,17.0149254 43.851269,16.9154229 43.6522843,16.9154229 C43.4532995,16.9154229 43.2791878,17.0149254 43.2791878,17.1393035 C43.2791878,17.238806 42.6822335,17.4129353 41.9360406,17.4875622 C41.1898477,17.5621891 40.0705584,17.8606965 39.448731,18.1343284 C38.5781726,18.5074627 38.3045685,18.5572139 38.3045685,18.3084577 C38.3045685,17.9850746 38.8766497,17.6119403 39.4238579,17.5621891 C39.5730964,17.5373134 39.9461929,17.2885572 40.2695431,16.9900498 C40.5928934,16.6915423 40.9659898,16.4925373 41.0903553,16.5671642 C41.2147208,16.641791 41.8614213,16.3681592 42.5329949,15.9452736 C43.2294416,15.5223881 43.9258883,15.1741294 44.1,15.1741294 C44.5228426,15.1492537 45.2690355,14.5522388 45.2690355,14.2039801 C45.2690355,13.5820896 43.7020305,14.0049751 42.0604061,15.0995025 C41.5878173,15.4228856 40.9908629,15.6716418 40.6923858,15.6716418 C40.219797,15.6716418 40.2446701,15.6218905 40.9162437,15.0497512 C41.3390863,14.7014925 42.1350254,14.2039801 42.7071066,13.9552239 C43.6771574,13.5074627 44.7467005,12.3383085 44.4482234,12.039801 C44.2492386,11.840796 42.035533,13.1343284 41.3390863,13.8557214 C41.015736,14.1542289 40.6177665,14.4278607 40.4187817,14.4278607 C40.2446701,14.4278607 39.9959391,14.6517413 39.9213198,14.9253731 C39.7969543,15.2985075 39.6228426,15.39801 39.2994924,15.2985075 C39.0258883,15.2238806 38.5781726,15.2736318 38.3045685,15.4228856 C37.3345178,15.9452736 37.5335025,15.5223881 38.6527919,14.6517413 C39.971066,13.6318408 40.4187817,13.3333333 41.4634518,12.6865672 C42.1598985,12.2636816 43.4781726,10.2985075 43.2294416,10.0497512 C43.1796954,10 42.4832487,10.4975124 41.6873096,11.1442786 C39.3243655,13.0597015 38.180203,13.9303483 38.0060914,13.9303483 C37.4837563,13.9303483 37.9812183,13.2587065 39.9213198,11.318408 C41.4137056,9.80099502 42.035533,9.00497512 42.035533,8.55721393 C42.035533,8.23383085 41.9857868,7.960199 41.9360406,7.960199 C41.8862944,7.960199 40.4685279,9.37810945 38.7771574,11.0945274 C36.6629442,13.2338308 35.6680203,14.079602 35.6182741,13.8059701 C35.5685279,13.5820896 36.0162437,12.7860697 36.613198,12.039801 C39.1751269,8.78109453 40.0705584,7.21393035 39.3492386,7.21393035 C39.0756345,7.21393035 37.6081218,8.83084577 36.7624365,10.0746269 C35.7426396,11.5920398 34.3746193,13.0597015 34.1756345,12.8855721 C33.9517766,12.6368159 34.6482234,11.3432836 35.9416244,9.57711443 C36.5634518,8.75621891 37.2101523,7.81094527 37.4091371,7.46268657 C37.906599,6.56716418 38.1553299,5.2238806 37.8319797,5.2238806 C37.5086294,5.2238806 36.0659898,7.1641791 36.0659898,7.58706468 C36.0659898,7.76119403 35.842132,8.15920398 35.5436548,8.48258706 C35.2451777,8.80597015 34.6482234,9.67661692 34.1756345,10.39801 C33.4543147,11.4925373 32.8324873,12.039801 32.8324873,11.5671642 C32.8324873,11.2935323 33.528934,10.0746269 34.4243655,8.73134328 C34.9218274,8.00995025 35.319797,7.21393035 35.319797,6.96517413 C35.319797,6.71641791 35.4939086,6.39303483 35.6928934,6.21890547 C36.115736,5.87064677 36.2152284,3.9800995 35.7923858,3.9800995 C35.6680203,3.9800995 35.2700508,4.57711443 34.9218274,5.29850746 C34.5736041,5.99502488 34.2005076,6.76616915 34.0761421,6.96517413 C33.7527919,7.51243781 33.1558376,8.70646766 32.6832487,9.75124378 C32.1857868,10.8706468 31.5888325,11.1940299 31.5888325,10.3482587 C31.5888325,10.0248756 31.7380711,9.62686567 31.9370558,9.47761194 C32.1111675,9.32835821 32.4096447,8.65671642 32.6086294,8.00995025 C32.7827411,7.36318408 33.1558376,6.29353234 33.4543147,5.59701493 C34.0015228,4.35323383 34.1258883,3.35820896 33.7030457,3.35820896 C33.4791878,3.35820896 32.3847716,5.44776119 31.3401015,7.8358209 C30.4695431,9.85074627 30.2705584,10.199005 30.0467005,10.199005 C29.7730964,10.199005 29.7979695,9.00497512 30.0964467,8.83084577 C30.2456853,8.75621891 30.3451777,8.43283582 30.3451777,8.13432836 C30.3451777,7.8358209 30.5690355,7.11442786 30.8426396,6.54228856 C31.4147208,5.24875622 31.7878173,2.48756219 31.3649746,2.48756219 C31.215736,2.48756219 31.0913706,2.76119403 31.0913706,3.10945274 C31.0913706,3.45771144 30.9918782,3.73134328 30.8675127,3.73134328 C30.7431472,3.73134328 30.5441624,3.95522388 30.4695431,4.22885572 C30.3949239,4.50248756 30.171066,4.87562189 30.0218274,5.02487562 C29.7233503,5.34825871 29.2010152,6.91542289 28.9274112,8.28358209 C28.8030457,8.95522388 28.4299492,9.37810945 28.1812183,9.12935323 C28.1314721,9.05472637 28.2807107,8.23383085 28.5543147,7.28855721 C29.3253807,4.67661692 29.8228426,1.91542289 29.5989848,1.49253731 C29.3502538,1.06965174 29.4497462,0.895522388 28.6040609,3.4079602 C28.3304569,4.25373134 28.106599,5.09950249 28.106599,5.27363184 C28.106599,5.44776119 27.8827411,6.14427861 27.6340102,6.84079602 C27.3604061,7.51243781 27.086802,8.28358209 27.0121827,8.55721393 C26.8878173,8.93034826 26.7883249,8.95522388 26.4898477,8.70646766 C26.2908629,8.53233831 26.1913706,8.28358209 26.2659898,8.15920398 C26.4152284,7.93532338 26.6888325,6.39303483 27.1614213,3.28358209 C27.335533,2.039801 27.335533,1.3681592 27.1614213,1.19402985 C26.8380711,0.870646766 26.3654822,2.26368159 26.2908629,3.83084577 C26.2411168,4.45273632 26.0670051,5.12437811 25.9177665,5.27363184 C25.7436548,5.44776119 25.6192893,5.72139303 25.6192893,5.89552239 C25.6192893,6.06965174 25.519797,6.21890547 25.3954315,6.21890547 C25.271066,6.21890547 25.1964467,5 25.2213198,3.48258706 C25.2461929,0.373134328 24.8730964,-0.298507463 24.5248731,2.31343284 C24.4253807,3.23383085 24.2263959,3.9800995 24.1020305,3.9800995 C23.7538071,3.9800995 23.5796954,3.45771144 23.8532995,3.15920398 C24.1020305,2.86069652 23.8284264,1.0199005 23.4304569,0.39800995 C23.1071066,-0.124378109 22.9329949,2.1641791 23.0573604,5.42288557 C23.1568528,8.23383085 23.1319797,8.70646766 22.8086294,8.70646766 C22.5101523,8.70646766 22.4106599,8.20895522 22.2862944,6.29353234 C22.1121827,3.78109453 21.7888325,2.08955224 21.3411168,1.54228856 C21.142132,1.31840796 20.9928934,1.3681592 20.7441624,1.86567164 C20.4705584,2.3880597 20.4954315,2.6119403 20.8187817,3.23383085 C21.0177665,3.65671642 21.1172589,4.17910448 21.0177665,4.4278607 C20.8685279,4.82587065 20.8187817,4.80099502 20.4954315,4.37810945 C20.2964467,4.10447761 20.1472081,3.6318408 20.1472081,3.33333333 C20.1472081,2.78606965 19.2517766,0.995024876 18.9781726,0.995024876 C18.9035533,0.995024876 18.9035533,1.66666667 18.9781726,2.48756219 C19.1274112,3.70646766 19.077665,3.9800995 18.7791878,3.9800995 C18.580203,3.9800995 18.2319797,3.58208955 18.0329949,3.05970149 C17.8340102,2.56218905 17.5852792,2.23880597 17.4857868,2.31343284 C17.3116751,2.51243781 17.6847716,4.40298507 18.4309645,7.08955224 C19.0030457,9.15422886 19.0527919,9.95024876 18.6050761,9.50248756 C18.2817259,9.17910448 17.2121827,6.31840796 16.9883249,5.09950249 C16.8390863,4.30348259 15.9685279,2.98507463 15.5954315,2.98507463 C15.471066,2.98507463 15.4461929,3.1840796 15.5456853,3.4079602 C15.9685279,4.45273632 15.9685279,4.72636816 15.5705584,4.72636816 C15.3467005,4.72636816 15.1725888,4.60199005 15.1725888,4.4278607 C15.1725888,4.10447761 14.451269,3.23383085 14.177665,3.23383085 C13.928934,3.23383085 14.3517766,5.14925373 14.7994924,6.06965174 C14.9984772,6.44278607 15.222335,7.1641791 15.3218274,7.68656716 C15.3964467,8.1840796 15.6700508,9.12935323 15.9436548,9.7761194 C16.4659898,11.0199005 16.3913706,11.6915423 15.7695431,11.1691542 C15.5954315,11.0199005 15.3467005,10.4975124 15.2720812,9.97512438 C15.0730964,8.90547264 12.8345178,4.40298507 12.2624365,3.93034826 C11.8147208,3.58208955 11.8147208,3.45771144 12.3370558,5.94527363 C12.4862944,6.61691542 12.4365482,6.66666667 11.9639594,6.54228856 C11.6654822,6.46766169 11.4416244,6.51741294 11.4416244,6.69154229 C11.4416244,7.06467662 12.8096447,9.90049751 13.3319797,10.6218905 C13.5807107,10.9701493 13.6304569,11.1940299 13.4563452,11.318408 C13.3071066,11.3930348 13.1827411,11.3681592 13.1827411,11.2189055 C13.1827411,11.0696517 12.8593909,10.5970149 12.4614213,10.1492537 C12.0883249,9.70149254 11.6903553,9.07960199 11.5908629,8.78109453 C11.4167513,8.23383085 9.7751269,6.8159204 9.55126904,7.039801 C9.47664975,7.11442786 9.60101523,7.51243781 9.8,7.93532338 C10.0238579,8.33333333 10.1979695,9.00497512 10.1979695,9.40298507 C10.1979695,10.199005 10.5959391,10.6965174 11.2426396,10.6965174 C11.4913706,10.6965174 11.6903553,10.8706468 11.6903553,11.0696517 C11.6903553,11.2686567 12.0137056,11.7661692 12.4365482,12.1393035 C13.2076142,12.8855721 13.4563452,13.9303483 12.8593909,13.9303483 C12.6604061,13.9303483 12.1629442,13.4328358 11.7152284,12.8109453 C11.2675127,12.1890547 10.819797,11.6915423 10.6705584,11.6915423 C10.5461929,11.6915423 10.4467005,11.5671642 10.4467005,11.3930348 C10.4467005,11.0447761 8.23299492,8.70646766 7.90964467,8.70646766 C7.21319797,8.70646766 8.68071066,11.9154229 9.40203046,11.9402985 C9.55126904,11.9402985 9.70050761,12.0895522 9.70050761,12.2885572 C9.70050761,12.4626866 10.0984772,12.9353234 10.571066,13.2835821 C11.0436548,13.6567164 11.4416244,14.1791045 11.4416244,14.4278607 C11.4416244,14.7761194 11.0685279,14.5522388 9.94923858,13.4577114 C9.1284264,12.6616915 8.45685279,11.8159204 8.45685279,11.5671642 C8.45685279,11.2437811 8.30761421,11.1691542 7.90964467,11.2686567 C7.61116751,11.3681592 7.21319797,11.2935323 7.03908629,11.1442786 C6.49187817,10.6965174 6.34263959,11.1442786 6.84010152,11.6915423 C7.53654822,12.4626866 6.96446701,12.8358209 6.11878173,12.1641791 C5.74568528,11.8656716 5.37258883,11.6915423 5.29796954,11.7661692 C5.17360406,11.9154229 6.49187817,13.681592 7.81015228,15.1243781 C8.48172589,15.8457711 8.50659898,15.920398 8.03401015,15.920398 C7.76040609,15.920398 6.96446701,15.4726368 6.2680203,14.9253731 C5.09898477,13.9800995 3.97969543,13.6318408 3.97969543,14.1791045 C3.97969543,14.3283582 4.07918782,14.4278607 4.2284264,14.4278607 C4.35279188,14.4278607 4.67614213,14.6268657 4.9248731,14.8507463 C5.14873096,15.0995025 5.69593909,15.5472637 6.09390863,15.8457711 C7.33756345,16.7412935 6.61624365,16.7412935 5.07411168,15.8457711 C3.5071066,14.9253731 2.48730964,14.5273632 2.48730964,14.8258706 C2.48730964,15.0995025 3.75583756,16.2189055 4.9,16.9651741 C5.49695431,17.3383085 5.96954315,17.7860697 5.96954315,17.9353234 C5.96954315,18.2338308 5.77055838,18.1840796 4.00456853,17.5373134 C3.40761421,17.3134328 2.86040609,17.1890547 2.8106599,17.2636816 C2.61167513,17.4626866 4.05431472,18.6318408 4.47715736,18.6567164 C4.67614213,18.6567164 5.29796954,18.9303483 5.84517766,19.278607 C6.39238579,19.60199 7.21319797,20.0497512 7.66091371,20.2487562 C8.08375635,20.4477612 8.45685279,20.7462687 8.45685279,20.8706468 C8.45685279,21.1940299 7.66091371,21.2437811 7.31269036,20.9452736 C6.9893401,20.6467662 4.2284264,19.5522388 3.60659898,19.4776119 C3.33299492,19.4527363 2.7857868,19.3532338 2.41269036,19.278607 C1.91522843,19.2039801 1.74111675,19.2537313 1.79086294,19.4776119 C1.86548223,19.6268657 2.13908629,19.800995 2.43756345,19.8507463 C2.73604061,19.9004975 2.98477157,20.0248756 2.98477157,20.1243781 C2.98477157,20.2487562 3.33299492,20.39801 3.73096447,20.4975124 C4.15380711,20.5721393 4.47715736,20.7462687 4.47715736,20.920398 C4.47715736,21.0945274 4.2035533,21.119403 3.75583756,21.0199005 C2.36294416,20.721393 1.59187817,20.6716418 1.24365482,20.8955224 C0.795939086,21.1691542 2.06446701,21.7412935 3.65634518,22.0149254 C4.25329949,22.1144279 4.77563452,22.2885572 4.8751269,22.4129353 C4.94974619,22.5373134 5.09898477,22.5870647 5.22335025,22.5124378 C5.32284264,22.4378109 5.74568528,22.5621891 6.11878173,22.761194 C6.51675127,22.960199 6.9893401,23.1343284 7.16345178,23.1343284 C7.31269036,23.1343284 7.46192893,23.2338308 7.46192893,23.3333333 C7.46192893,23.4328358 7.16345178,23.5074627 6.76548223,23.4825871 C6.39238579,23.4577114 6.09390863,23.4079602 6.09390863,23.3830846 C6.09390863,23.3084577 4.32791878,23.159204 2.43756345,23.0348259 C0.820812183,22.9353234 0.497461929,22.9850746 0.497461929,23.3084577 C0.497461929,23.5323383 0.646700508,23.6318408 0.870558376,23.5323383 C1.31827411,23.3830846 1.98984772,23.5820896 1.98984772,23.9054726 C1.98984772,24.0298507 1.74111675,24.1293532 1.4177665,24.1293532 C1.09441624,24.1293532 0.746192893,24.2039801 0.671573604,24.3034826 C0.497461929,24.4776119 1.61675127,25.1243781 2.1142132,25.1243781 C2.36294416,25.1243781 2.98477157,26.119403 2.98477157,26.4925373 C2.98477157,26.840796 2.48730964,26.5422886 2.36294416,26.119403 C2.16395939,25.4726368 1.49238579,25.4726368 1.49238579,26.0945274 C1.49238579,26.3681592 1.3928934,26.641791 1.29340102,26.7164179 C0.994923858,26.8905473 0.945177665,28.8557214 1.24365482,28.8557214 C1.3680203,28.8557214 1.66649746,28.6318408 1.91522843,28.3830846 C2.26345178,28.0099502 2.8106599,27.8855721 4.55177665,27.8358209 C6.56649746,27.7363184 7.08883249,27.8606965 6.46700508,28.2338308 C6.34263959,28.3084577 5.74568528,28.3830846 5.17360406,28.3830846 C4.57664975,28.3830846 3.5071066,28.5820896 2.8106599,28.8059701 C1.49238579,29.2039801 1.06954315,29.60199 1.96497462,29.60199 C2.31319797,29.60199 2.41269036,29.7263682 2.31319797,30.0995025 C2.23857868,30.3731343 1.96497462,30.5970149 1.71624365,30.5970149 C1.46751269,30.5970149 1.19390863,30.721393 1.11928934,30.8457711 C0.895431472,31.2189055 1.81573604,31.1442786 4.60152284,30.6218905 C5.96954315,30.3482587 7.11370558,30.1741294 7.18832487,30.2238806 C7.23807107,30.2736318 7.21319797,30.4975124 7.13857868,30.721393 C7.03908629,30.9701493 6.66598985,31.0945274 5.99441624,31.0945274 C5.22335025,31.0945274 4.99949239,31.1940299 4.9,31.641791 C4.77563452,32.0895522 4.70101523,32.1144279 4.35279188,31.840796 C4.02944162,31.5671642 3.85532995,31.5671642 3.35786802,31.840796 C2.38781726,32.3631841 2.63654822,32.5870647 3.97969543,32.4626866 C5.12385787,32.3383085 5.5964467,32.5870647 4.97461929,32.960199 C4.65126904,33.159204 4.65126904,34.079602 4.97461929,34.079602 C5.12385787,34.079602 5.29796954,33.9303483 5.37258883,33.7313433 C5.44720812,33.5323383 5.69593909,33.4328358 5.99441624,33.5074627 C6.24314721,33.5820896 6.64111675,33.4825871 6.86497462,33.3084577 C7.08883249,33.1343284 7.51167513,32.960199 7.78527919,32.9104478 C8.80507614,32.761194 9.00406091,32.6119403 8.82994924,32.0895522 C8.70558376,31.7412935 8.78020305,31.5920398 9.05380711,31.5920398 C9.27766497,31.5920398 9.45177665,31.7164179 9.45177665,31.840796 C9.45177665,31.9900498 9.62588832,32.0895522 9.8248731,32.0895522 C10.5461929,32.0895522 10.1979695,32.7363184 9.25279188,33.159204 C8.73045685,33.3830846 8.18324873,33.5820896 8.03401015,33.5820896 C7.88477157,33.5820896 7.38730964,33.8557214 6.91472081,34.1542289 C6.44213198,34.4776119 5.74568528,34.8258706 5.37258883,34.9253731 C4.99949239,35.0248756 4.52690355,35.2238806 4.30304569,35.39801 C3.35786802,36.1691542 2.95989848,36.6169154 3.08426396,36.7412935 C3.23350254,36.8905473 5.24822335,36.3432836 5.47208122,36.0696517 C5.54670051,35.9950249 6.01928934,35.721393 6.54162437,35.4726368 C7.03908629,35.199005 7.46192893,34.8258706 7.46192893,34.6268657 C7.46192893,34.3283582 7.53654822,34.3283582 7.83502538,34.5771144 C8.10862944,34.800995 8.30761421,34.800995 8.53147208,34.6268657 C8.97918782,34.2537313 10.9939086,33.5820896 11.2426396,33.7313433 C11.5411168,33.9054726 9.84974619,35.2238806 8.4319797,35.9452736 C6.61624365,36.8905473 5.09898477,38.3084577 5.94467005,38.3084577 C6.46700508,38.3084577 10.8446701,36.0945274 11.2923858,35.5970149 C11.864467,34.9502488 12.6852792,34.9004975 12.6852792,35.5223881 C12.6852792,36.1691542 12.386802,36.5174129 11.6406091,36.6915423 C11.2675127,36.7910448 10.8446701,37.0149254 10.6705584,37.2139303 C10.5213198,37.4129353 10.2477157,37.5621891 10.0984772,37.5621891 C9.92436548,37.5621891 9.55126904,37.8358209 9.25279188,38.1840796 C8.95431472,38.5323383 8.55634518,38.8059701 8.3822335,38.8059701 C8.20812183,38.8059701 7.61116751,39.2537313 7.08883249,39.800995 C6.24314721,40.6467662 6.19340102,40.7960199 6.64111675,40.7960199 C6.91472081,40.7960199 7.66091371,40.39801 8.28274112,39.9253731 C10.0238579,38.6069652 10.571066,38.8308458 9.17817259,40.3233831 C8.35736041,41.2189055 7.85989848,42.0149254 8.03401015,42.1890547 C8.23299492,42.3880597 9.89949239,41.1442786 11.1928934,39.8258706 C11.8893401,39.1293532 12.4862944,38.5572139 12.5609137,38.5572139 C12.635533,38.5572139 12.9837563,38.2587065 13.3071066,37.8855721 C13.6304569,37.4875622 13.9786802,37.2885572 14.0781726,37.3880597 C14.177665,37.4875622 13.9786802,37.8606965 13.6055838,38.2089552 C13.2324873,38.5572139 12.9340102,38.9800995 12.9340102,39.1791045 C12.9340102,39.3532338 12.5609137,39.8756219 12.1380711,40.3233831 C11.4913706,40.9701493 9.94923858,43.5323383 9.94923858,43.9552239 C9.94923858,44.0049751 10.2228426,43.9054726 10.5461929,43.7313433 C11.093401,43.4328358 13.4314721,40.7711443 13.4314721,40.4477612 C13.4314721,40.3731343 13.6304569,40.0995025 13.8791878,39.8507463 C14.1030457,39.6268657 14.5507614,39.079602 14.8492386,38.681592 C15.2720812,38.0845771 15.4461929,38.0099502 15.6949239,38.2338308 C15.9436548,38.4825871 15.8441624,38.7562189 15.2969543,39.60199 C14.8989848,40.199005 14.2522843,40.9950249 13.8791878,41.3930348 C12.884264,42.4129353 10.7949239,45.9452736 11.0436548,46.1940299 C11.2675127,46.4179104 13.4314721,44.4776119 13.4314721,44.0547264 C13.4314721,43.5572139 14.8492386,41.5422886 15.1974619,41.5422886 C15.5705584,41.5422886 15.4461929,42.039801 14.9238579,42.7114428 C14.6502538,43.0597015 14.4263959,43.5074627 14.4263959,43.7064677 C14.4263959,43.880597 14.1279188,44.4776119 13.7796954,45.0248756 C13.406599,45.5721393 13.1827411,46.119403 13.3071066,46.2189055 C13.5060914,46.4427861 14.8243655,44.9502488 15.3467005,43.9054726 C16.1923858,42.1393035 17.5106599,40.2985075 17.9086294,40.2985075 C18.1822335,40.2985075 17.8837563,41.641791 17.5604061,41.9154229 C16.9385787,42.4626866 15.6700508,44.4029851 15.6700508,44.800995 C15.6700508,45.0497512 15.5705584,45.2985075 15.4461929,45.3731343 C15.1725888,45.5472637 14.9238579,46.7661692 15.1725888,46.7661692 C15.7446701,46.7661692 16.6401015,45.6467662 16.9137056,44.60199 C17.0878173,43.9552239 17.4360406,43.1840796 17.6598985,42.9104478 C17.8837563,42.6368159 18.1822335,42.1890547 18.2817259,41.9154229 C18.4807107,41.4427861 18.5055838,41.4427861 18.580203,41.9651741 C18.6796954,42.5373134 18.2071066,44.1293532 17.535533,45.4477612 C17.3116751,45.8955224 17.1624365,46.6169154 17.2121827,47.0646766 L17.286802,47.8855721 L17.9832487,46.6666667 C18.3563452,45.9950249 18.6548223,45.2487562 18.6548223,45 C18.6548223,44.4527363 19.1025381,44.1293532 19.4507614,44.4776119 C19.6248731,44.6517413 19.5751269,45 19.2766497,45.5721393 C18.7791878,46.5422886 18.3812183,48.7064677 18.6796954,48.9054726 C19.0527919,49.1293532 19.8984772,48.159204 19.8984772,47.4626866 C19.8984772,47.0646766 20.0228426,46.7661692 20.1472081,46.7661692 C20.2964467,46.7661692 20.3959391,47.1393035 20.3959391,47.6119403 C20.3959391,48.4079602 20.893401,49.1293532 21.0675127,48.6069652 C21.3411168,47.8606965 21.6147208,47.6616915 21.9629442,47.9850746 C22.4106599,48.358209 22.5350254,48.1840796 22.7588832,46.840796 C22.9827411,45.3731343 23.2812183,45.3233831 23.5050761,46.7164179 C23.6791878,47.9104478 24.0274112,48.5820896 24.3756345,48.3830846 C24.4751269,48.3084577 24.5994924,47.2885572 24.6243655,46.0945274 C24.6989848,43.9800995 24.748731,42.6368159 24.8482234,41.7412935 C24.8482234,41.4925373 24.9725888,41.2935323 25.0969543,41.2935323 C25.2213198,41.2935323 25.3954315,42.6119403 25.4949239,44.2288557 C25.7436548,48.1343284 25.7187817,48.0597015 26.0918782,48.7313433 C26.6639594,49.7761194 26.9624365,48.9552239 26.8878173,46.5671642 Z M5.87005076,41.119403 C5.69593909,40.9452736 5.22335025,41.2935323 5.22335025,41.5920398 C5.22335025,41.7412935 5.37258883,41.7412935 5.5964467,41.5422886 C5.82030457,41.3681592 5.91979695,41.1691542 5.87005076,41.119403 Z M2.93502538,34.8258706 C3.58172589,34.8258706 3.88020305,34.5273632 4.07918782,33.7562189 L4.25329949,33.0597015 L3.30812183,33.5572139 C2.31319797,34.0547264 1.26852792,35.2985075 2.1142132,34.9751244 C2.33807107,34.9004975 2.71116751,34.8258706 2.93502538,34.8258706 Z M45.3436548,23.159204 C45.7416244,22.761194 45.5426396,22.6865672 43.5279188,22.6119403 C41.5878173,22.5373134 41.0406091,22.6616915 41.0406091,23.2587065 C41.0406091,23.5074627 41.4883249,23.5820896 43.0553299,23.5074627 C44.1746193,23.4577114 45.1944162,23.3084577 45.3436548,23.159204 Z M47.7812183,23.3830846 C48.0299492,23.2338308 48.2538071,23.0099502 48.2538071,22.8855721 C48.2538071,22.5124378 47.0101523,22.5870647 46.6370558,22.9850746 C46.0152284,23.5820896 46.8360406,23.880597 47.7812183,23.3830846 Z M42.284264,21.3930348 C42.284264,20.8706468 41.9111675,20.721393 41.6624365,21.1442786 C41.5380711,21.3432836 41.3888325,21.318408 41.1401015,21.119403 C40.7172589,20.7711443 40.6675127,21.1691542 41.0903553,21.5920398 C41.5629442,22.0646766 42.284264,21.9651741 42.284264,21.3930348 Z M47.0350254,21.0945274 C47.4329949,20.4975124 47.2588832,20.4228856 45.7167513,20.5472637 C42.8314721,20.7462687 42.1847716,20.9452736 42.6822335,21.4676617 C42.9807107,21.7661692 46.8360406,21.4427861 47.0350254,21.0945274 Z M45.6918782,16.7661692 L46.3883249,16.119403 L45.4182741,16.2686567 C44.2741117,16.4179104 44.2243655,16.4676617 44.4233503,17.0149254 C44.622335,17.5621891 44.871066,17.5124378 45.6918782,16.7661692 Z" id="Shape"></path>
                    <path d="M28.7532995,46.4676617 C28.2060914,43.8557214 28.0071066,41.5422886 28.3055838,41.5422886 C28.4548223,41.5422886 28.6538071,41.9651741 28.7284264,42.4875622 C28.8030457,42.9850746 29.0517766,44.1044776 29.2507614,44.9502488 C29.6984772,46.8656716 29.6984772,47.0149254 29.2258883,47.0149254 C29.0269036,47.0149254 28.8030457,46.7661692 28.7532995,46.4676617 Z" id="Path"></path>
                    <path d="M20.1472081,46.0199005 C20.1472081,45.8955224 20.2715736,45.7711443 20.3959391,45.7711443 C20.5451777,45.7711443 20.6446701,45.8955224 20.6446701,46.0199005 C20.6446701,46.1691542 20.5451777,46.2686567 20.3959391,46.2686567 C20.2715736,46.2686567 20.1472081,46.1691542 20.1472081,46.0199005 Z" id="Path"></path>
                    <path d="M23.0324873,45.0497512 C22.8335025,44.7512438 23.1071066,44.0298507 23.4055838,44.0298507 C23.7040609,44.0298507 23.7040609,44.9502488 23.4055838,45.1492537 C23.2812183,45.2238806 23.1071066,45.1741294 23.0324873,45.0497512 Z" id="Path"></path>
                    <path d="M19.4010152,43.681592 C19.4010152,43.4577114 19.5253807,43.2835821 19.6497462,43.2835821 C19.7989848,43.2835821 19.8984772,43.3830846 19.8984772,43.5074627 C19.8984772,43.6567164 19.7989848,43.8308458 19.6497462,43.9054726 C19.5253807,43.9800995 19.4010152,43.880597 19.4010152,43.681592 Z" id="Path"></path>
                    <path d="M23.1319797,42.5373134 C23.1319797,42.2636816 23.2563452,42.039801 23.3807107,42.039801 C23.5299492,42.039801 23.6294416,42.2636816 23.6294416,42.5373134 C23.6294416,42.8109453 23.5299492,43.0348259 23.3807107,43.0348259 C23.2563452,43.0348259 23.1319797,42.8109453 23.1319797,42.5373134 Z" id="Path"></path>
                    <path d="M15.9187817,40.6218905 C15.9187817,40.1492537 16.1923858,39.5522388 16.4411168,39.5522388 C16.764467,39.5522388 16.7147208,39.9004975 16.2918782,40.4477612 C16.0928934,40.6965174 15.9187817,40.7960199 15.9187817,40.6218905 Z" id="Path"></path>
                    <path d="M22.8832487,39.079602 C22.684264,38.9303483 22.2862944,38.880597 21.9878173,38.9552239 C21.6893401,39.0298507 21.0177665,38.9054726 20.4954315,38.6567164 C19.9730964,38.4328358 19.4010152,38.2587065 19.2517766,38.2835821 C19.1025381,38.3084577 18.828934,38.1343284 18.6548223,37.9353234 C18.4807107,37.7363184 18.1573604,37.5621891 17.9086294,37.5621891 C17.6598985,37.5621891 17.3365482,37.3880597 17.1624365,37.1890547 C16.9883249,36.9900498 16.6401015,36.8159204 16.3913706,36.8159204 C16.1177665,36.8159204 15.9187817,36.6666667 15.9187817,36.4676617 C15.9187817,35.9950249 14.5010152,34.5771144 14.0284264,34.5771144 C13.7796954,34.5771144 13.680203,34.278607 13.680203,33.5820896 C13.680203,32.6119403 13.3817259,32.2885572 13.0335025,32.8855721 C12.8096447,33.2338308 12.1878173,32.4378109 12.1878173,31.8159204 C12.1878173,31.5920398 12.0137056,31.318408 11.7898477,31.2437811 C11.3918782,31.0945274 11.3918782,30.8457711 11.8395939,29.0049751 C11.9888325,28.358209 11.9639594,28.3084577 11.5659898,28.4577114 C10.9441624,28.681592 10.6954315,28.2338308 10.6954315,26.8656716 C10.6954315,26.2189055 10.571066,25.5970149 10.3969543,25.4228856 C10.1730964,25.199005 10.1730964,24.9253731 10.3969543,24.2039801 C10.571066,23.681592 10.9192893,22.4378109 11.1928934,21.4179104 C11.4664975,20.39801 11.9142132,19.3532338 12.1878173,19.1044776 C12.5111675,18.8059701 12.6604061,18.4328358 12.5609137,18.1840796 C12.4862944,17.9353234 12.5857868,17.6119403 12.7598985,17.4378109 C12.9588832,17.2885572 13.3071066,16.6666667 13.5558376,16.0447761 C13.8045685,15.3482587 14.1279188,14.9253731 14.3766497,14.9253731 C14.6005076,14.9253731 15.2720812,14.7512438 15.8690355,14.5024876 C16.7147208,14.1791045 16.9137056,14.0049751 16.8639594,13.5820896 C16.7395939,12.6616915 19.4507614,11.4427861 21.664467,11.4427861 C22.4604061,11.4427861 22.8832487,11.2935323 23.1817259,10.9452736 C23.5548223,10.5223881 23.8532995,10.4726368 25.2213198,10.5721393 C26.1167513,10.6218905 27.1862944,10.8457711 27.584264,11.0696517 C28.0071066,11.2686567 28.5045685,11.4427861 28.7284264,11.4427861 C28.9274112,11.4427861 29.1015228,11.5671642 29.1015228,11.7164179 C29.1015228,11.840796 29.4994924,12.1144279 29.9472081,12.3134328 C30.419797,12.5124378 31.1659898,13.1343284 31.6137056,13.681592 C32.0614213,14.2288557 32.5837563,14.6766169 32.757868,14.6766169 C33.3299492,14.6766169 34.3497462,15.4726368 34.9715736,16.3930348 C35.2949239,16.8905473 35.7923858,17.5621891 36.0659898,17.9104478 C36.3395939,18.2587065 36.7126904,19.1044776 36.886802,19.8258706 C37.1852792,20.9452736 37.1852792,21.1691542 36.8370558,21.4925373 C36.5137056,21.840796 36.5137056,21.9402985 36.9862944,22.4378109 C37.6827411,23.2089552 37.8568528,25.6218905 37.4340102,28.6567164 C37.0111675,31.641791 36.5137056,32.6616915 34.4492386,34.6766169 C33.0812183,36.0199005 29.7233503,38.1343284 28.2309645,38.6318408 C26.6390863,39.1293532 23.3807107,39.4029851 22.8832487,39.079602 Z M25.4203046,25.0995025 C25.3208122,24.278607 24.8730964,23.8557214 24.1517766,23.9303483 C23.2812183,24.0298507 23.1071066,25.1492537 23.9030457,25.6965174 C24.6243655,26.2189055 25.519797,25.8706468 25.4203046,25.0995025 Z" id="Shape"></path>
                    <path d="M40.3690355,31.8905473 C39.9461929,31.5174129 39.3989848,31.0945274 39.1502538,30.9452736 C38.8766497,30.7960199 38.8020305,30.6218905 38.951269,30.5223881 C39.3989848,30.2487562 42.035533,31.840796 42.035533,32.3880597 C42.035533,32.8109453 41.1401015,32.5621891 40.3690355,31.8905473 Z" id="Path"></path>
                    <path d="M7.7106599,30.3482587 C7.7106599,30.2238806 7.83502538,30.0995025 7.95939086,30.0995025 C8.10862944,30.0995025 8.20812183,30.2238806 8.20812183,30.3482587 C8.20812183,30.4975124 8.10862944,30.5970149 7.95939086,30.5970149 C7.83502538,30.5970149 7.7106599,30.4975124 7.7106599,30.3482587 Z" id="Path"></path>
                    <path d="M41.8116751,29.1293532 C41.4634518,29.0298507 41.1649746,28.8308458 41.0903553,28.6318408 C41.015736,28.4079602 41.1898477,28.4079602 41.7619289,28.7064677 C42.1847716,28.9303483 42.5329949,29.1791045 42.5329949,29.2288557 C42.5329949,29.3034826 42.5081218,29.3532338 42.4832487,29.3283582 C42.4335025,29.3034826 42.1350254,29.2288557 41.8116751,29.1293532 Z" id="Path"></path>
                    <path d="M44.2741117,28.1094527 C44.0751269,27.9850746 43.5527919,27.8606965 43.1299492,27.8606965 C42.3340102,27.8606965 41.0406091,27.3631841 41.0406091,27.039801 C41.0406091,26.8159204 43.2045685,27.0149254 44.0502538,27.3134328 C44.8213198,27.6119403 45.4928934,28.358209 44.9954315,28.358209 C44.7964467,28.358209 44.4730964,28.2338308 44.2741117,28.1094527 Z" id="Path"></path>
                    <path d="M5.09898477,25.6218905 C5.02436548,25.4975124 5.12385787,25.3731343 5.32284264,25.3731343 C5.54670051,25.3731343 5.72081218,25.4975124 5.72081218,25.6218905 C5.72081218,25.7711443 5.6213198,25.8706468 5.49695431,25.8706468 C5.34771574,25.8706468 5.17360406,25.7711443 5.09898477,25.6218905 Z" id="Path"></path>
                    <path d="M6.46700508,25.6218905 C6.46700508,25.4975124 6.59137056,25.3731343 6.71573604,25.3731343 C6.86497462,25.3731343 6.96446701,25.4975124 6.96446701,25.6218905 C6.96446701,25.7711443 6.86497462,25.8706468 6.71573604,25.8706468 C6.59137056,25.8706468 6.46700508,25.7711443 6.46700508,25.6218905 Z" id="Path"></path>
                    <path d="M7.46192893,17.4129353 C7.46192893,17.2885572 7.58629442,17.1641791 7.7106599,17.1641791 C7.85989848,17.1641791 7.95939086,17.2885572 7.95939086,17.4129353 C7.95939086,17.5621891 7.85989848,17.6616915 7.7106599,17.6616915 C7.58629442,17.6616915 7.46192893,17.5621891 7.46192893,17.4129353 Z" id="Path"></path>
                    <path d="M9.60101523,15.4477612 C9.32741117,15.1492537 9.27766497,14.9253731 9.42690355,14.8258706 C9.55126904,14.7263682 9.8,14.9004975 9.94923858,15.199005 C10.322335,15.8955224 10.1233503,16.0447761 9.60101523,15.4477612 Z" id="Path"></path>
                    <path d="M36.8619289,14.5024876 C36.9614213,13.9054726 37.4588832,13.8308458 37.4588832,14.4278607 C37.4588832,14.7014925 37.3096447,14.9253731 37.1106599,14.9253731 C36.9365482,14.9253731 36.8121827,14.7263682 36.8619289,14.5024876 Z" id="Path"></path>
                    <path d="M16.9137056,9.45273632 C16.9137056,9.32835821 17.0380711,9.2039801 17.1624365,9.2039801 C17.3116751,9.2039801 17.4111675,9.32835821 17.4111675,9.45273632 C17.4111675,9.60199005 17.3116751,9.70149254 17.1624365,9.70149254 C17.0380711,9.70149254 16.9137056,9.60199005 16.9137056,9.45273632 Z" id="Path"></path>
                    <path d="M16.5903553,8.53233831 C16.3167513,8.28358209 16.3913706,7.46268657 16.6649746,7.46268657 C16.8142132,7.46268657 16.9137056,7.56218905 16.9137056,7.68656716 C16.9137056,7.81094527 16.9883249,8.08457711 17.0629442,8.30845771 C17.2121827,8.70646766 16.8888325,8.85572139 16.5903553,8.53233831 Z" id="Path"></path>
                    <path d="M24.0274112,5.24875622 C23.9279188,5.07462687 23.9030457,4.87562189 23.977665,4.80099502 C24.2015228,4.57711443 24.4502538,4.90049751 24.3258883,5.24875622 C24.2263959,5.52238806 24.1766497,5.52238806 24.0274112,5.24875622 Z" id="Path"></path>
                </g>
            </g>
            <g id="ochema" transform="translate(62.000000, 9.000000)" fill="#DAA520" fill-rule="nonzero">
                <path d="M21.7724715,62.826378 C17.6200553,62.826378 13.8943131,61.8846945 10.5951331,60.0012992 C7.29595309,58.117904 4.72206248,55.5036781 2.87338403,52.1585433 C1.02470559,48.8134085 0.100380228,45.0045096 0.100380228,40.7317323 C0.100380228,36.458955 1.02470559,32.6500561 2.87338403,29.3049213 C4.72206248,25.9597864 7.29595309,23.3596156 10.5951331,21.5043307 C13.8943131,19.6490458 17.6200553,18.7214173 21.7724715,18.7214173 C25.0147691,18.7214173 28.0152714,19.3257814 30.7740684,20.5345276 C33.5328655,21.7432738 35.8223483,23.500146 37.6425856,25.8051969 L36.4480608,27.0701575 C34.7984708,24.8213273 32.6938531,23.13473 30.1341445,22.010315 C27.5744359,20.8858999 24.7872394,20.3237008 21.7724715,20.3237008 C17.9613498,20.3237008 14.5342357,21.1810544 11.4910266,22.8957874 C8.44781748,24.6105204 6.07301233,27.0279765 4.36653992,30.1482283 C2.66006751,33.2684802 1.80684411,36.7962795 1.80684411,40.7317323 C1.80684411,44.7234058 2.66006751,48.2652601 4.36653992,51.3574016 C6.07301233,54.449543 8.44781748,56.8669992 11.4910266,58.6098425 C14.5342357,60.3526859 17.9613498,61.2240945 21.7724715,61.2240945 C24.7872394,61.2240945 27.5744359,60.6618954 30.1341445,59.5374803 C32.6938531,58.4130652 34.7984708,56.7264679 36.4480608,54.4776378 L37.6425856,55.7425984 C35.8223483,58.0476493 33.5328655,59.8045215 30.7740684,61.0132677 C28.0152714,62.2220139 25.0147691,62.826378 21.7724715,62.826378 Z M67.4103422,18.7214173 C72.9279363,18.7214173 77.2509349,20.2815198 80.3794677,23.4017717 C83.5080004,26.5220235 85.0722433,31.0055613 85.0722433,36.8525197 L85.0722433,62.5733858 L83.3657795,62.5733858 L83.3657795,36.8525197 C83.3657795,31.5115481 81.9864016,27.4215496 79.2276046,24.5824016 C76.4688075,21.7432535 72.5582002,20.3237008 67.4956654,20.3237008 C61.7505416,20.3237008 57.2142372,22.0243531 53.886616,25.4257087 C50.5589948,28.8270643 48.8952091,33.3106021 48.8952091,38.8764567 L48.8952091,62.5733858 L47.1887452,62.5733858 L47.1887452,2.84217094e-14 L48.8952091,2.84217094e-14 L48.8952091,30.6120472 C50.2603871,26.9014775 52.5356495,23.9920972 55.7210646,21.8838189 C58.9064798,19.7755406 62.8028667,18.7214173 67.4103422,18.7214173 Z M136.085475,40.7317323 L96.8368061,40.7317323 C96.8368061,44.667185 97.7184703,48.1949844 99.4818251,51.3152362 C101.24518,54.435488 103.676867,56.8669992 106.776958,58.6098425 C109.87705,60.3526859 113.361045,61.2240945 117.229049,61.2240945 C120.243817,61.2240945 123.073675,60.6478404 125.718707,59.495315 C128.363739,58.3427895 130.539459,56.6702472 132.245932,54.4776378 L133.440456,55.6582677 C131.506454,57.9633186 129.117429,59.7342458 126.273308,60.9711024 C123.429187,62.2079589 120.414465,62.826378 117.229049,62.826378 C113.019751,62.826378 109.251347,61.8846945 105.923726,60.0012992 C102.596105,58.117904 99.9795533,55.4896232 98.0739924,52.116378 C96.1684315,48.7431327 95.2156654,44.9482888 95.2156654,40.7317323 C95.2156654,36.5151758 96.0973296,32.7343868 97.8606844,29.389252 C99.6240392,26.0441171 102.055726,23.4298913 105.155817,21.5464961 C108.255909,19.6631008 111.739905,18.7214173 115.607909,18.7214173 C119.41903,18.7214173 122.888806,19.6490458 126.017338,21.5043307 C129.145871,23.3596156 131.605999,25.9176215 133.397795,29.1784252 C135.189591,32.4392289 136.085475,36.149743 136.085475,40.3100787 L136.085475,40.7317323 Z M115.607909,20.3237008 C112.194964,20.3237008 109.094919,21.1388895 106.307681,22.7692913 C103.520442,24.3996932 101.287841,26.6484896 99.6098099,29.515748 C97.9317787,32.3830065 97.0074533,35.5875413 96.8368061,39.1294488 L134.464335,39.1294488 C134.293687,35.5875413 133.355142,32.3830065 131.648669,29.515748 C129.942197,26.6484896 127.695375,24.3996932 124.908137,22.7692913 C122.120899,21.1388895 119.020854,20.3237008 115.607909,20.3237008 Z M201.60365,18.7214173 C206.950597,18.7214173 211.145612,20.2815198 214.188821,23.4017717 C217.23203,26.5220235 218.753612,31.0055613 218.753612,36.8525197 L218.753612,62.5733858 L217.047148,62.5733858 L217.047148,36.8525197 C217.047148,31.5115481 215.710432,27.4215496 213.036958,24.5824016 C210.363485,21.7432535 206.580861,20.3237008 201.688973,20.3237008 C196.114497,20.3237008 191.706176,22.0243531 188.463878,25.4257087 C185.221581,28.8270643 183.600456,33.3106021 183.600456,38.8764567 L183.600456,62.5733858 L181.893992,62.5733858 L181.893992,36.8525197 C181.893992,31.5115481 180.557276,27.4215496 177.883802,24.5824016 C175.210329,21.7432535 171.427705,20.3237008 166.535817,20.3237008 C160.961341,20.3237008 156.55302,22.0243531 153.310722,25.4257087 C150.068425,28.8270643 148.4473,33.3106021 148.4473,38.8764567 L148.4473,62.5733858 L146.740837,62.5733858 L146.740837,18.9744094 L148.4473,18.9744094 L148.4473,30.5277165 C149.755596,26.8171468 151.973977,23.9218214 155.10251,21.8416535 C158.231042,19.7614857 162.013666,18.7214173 166.450494,18.7214173 C170.944205,18.7214173 174.641506,19.8317605 177.54251,22.0524803 C180.443513,24.2732001 182.320604,27.4917899 183.17384,31.7083465 C184.311489,27.716673 186.487208,24.554303 189.701065,22.2211417 C192.914921,19.8879805 196.88241,18.7214173 201.60365,18.7214173 Z M248.180076,18.7214173 C253.299493,18.7214173 257.210101,20.0285302 259.912015,22.6427953 C262.61393,25.2570603 263.964867,29.0378493 263.964867,33.9852756 L263.964867,62.5733858 L262.258403,62.5733858 L262.258403,53.2970079 C260.836343,56.2767078 258.689064,58.6098341 255.816502,60.2964567 C252.94394,61.9830793 249.488385,62.826378 245.449734,62.826378 C240.557846,62.826378 236.732561,61.7160347 233.973764,59.495315 C231.214967,57.2745952 229.835589,54.3089949 229.835589,50.5984252 C229.835589,47.1127385 231.072763,44.287688 233.547148,42.123189 C236.021533,39.95869 240.017463,38.8764567 245.535057,38.8764567 L262.258403,38.8764567 L262.258403,34.0696063 C262.258403,29.5157253 261.078111,26.0863107 258.71749,23.7812598 C256.35687,21.4762089 252.872875,20.3237008 248.265399,20.3237008 C245.079984,20.3237008 242.107923,20.8718449 239.349125,21.9681496 C236.590328,23.0644543 234.215523,24.5402269 232.224639,26.3955118 L231.030114,25.2148819 C233.134763,23.1909348 235.694434,21.6027223 238.709202,20.4501969 C241.723969,19.2976714 244.880896,18.7214173 248.180076,18.7214173 Z M262.258403,40.4787402 L245.449734,40.4787402 C240.671611,40.4787402 237.159175,41.3782587 234.912319,43.1773228 C232.665464,44.9763869 231.542053,47.421953 231.542053,50.5140945 C231.542053,53.8311189 232.765007,56.4453448 235.210951,58.3568504 C237.656894,60.268356 241.069788,61.2240945 245.449734,61.2240945 C253.640801,61.2240945 259.243635,57.5135804 262.258403,50.0924409 L262.258403,50.0924409 L262.258403,40.4787402 Z" id="chema"></path>
            </g>
            <rect id="Rectangle" fill="#FFFFFF" x="10" y="24" width="49" height="1"></rect>
        </g>
    </g>
</svg>